<svg width="39" height="39" viewBox="0 0 39 39" fill="none" xmlns="http://www.w3.org/2000/svg">
<g filter="url(#filter0_d)">
<rect width="32" height="32" rx="16" transform="matrix(-1 -8.74228e-08 -8.74228e-08 1 35.2725 0.483398)" fill="black" fill-opacity="0.5"/>
<path d="M21.3792 20.9548C21.7251 21.2956 21.7323 21.6364 21.4008 21.9772C21.0693 22.318 20.745 22.318 20.4279 21.9772L15.931 17.144C15.7868 17.0201 15.7148 16.8497 15.7148 16.6328C15.7148 16.416 15.7868 16.2456 15.931 16.1216L20.4279 11.2884C20.745 10.9476 21.0693 10.9476 21.4008 11.2884C21.7323 11.6292 21.7251 11.97 21.3792 12.3108L17.4011 16.6328L21.3792 20.9548Z" fill="white"/>
</g>
<defs>
<filter id="filter0_d" x="0.472461" y="0.483398" width="37.6" height="37.6" filterUnits="userSpaceOnUse" color-interpolation-filters="sRGB">
<feFlood flood-opacity="0" result="BackgroundImageFix"/>
<feColorMatrix in="SourceAlpha" type="matrix" values="0 0 0 0 0 0 0 0 0 0 0 0 0 0 0 0 0 0 127 0"/>
<feOffset dy="2.8"/>
<feGaussianBlur stdDeviation="1.4"/>
<feColorMatrix type="matrix" values="0 0 0 0 0 0 0 0 0 0 0 0 0 0 0 0 0 0 0.25 0"/>
<feBlend mode="normal" in2="BackgroundImageFix" result="effect1_dropShadow"/>
<feBlend mode="normal" in="SourceGraphic" in2="effect1_dropShadow" result="shape"/>
</filter>
</defs>
</svg>
