<svg width="39" height="39" viewBox="0 0 39 39" fill="none" xmlns="http://www.w3.org/2000/svg">
<g filter="url(#filter0_d)">
<rect width="32" height="32" rx="16" transform="matrix(1 0 0 -1 3.72729 32.4834)" fill="black" fill-opacity="0.5"/>
<path d="M17.6206 12.012C17.2746 11.6712 17.2674 11.3304 17.5989 10.9896C17.9304 10.6488 18.2547 10.6488 18.5718 10.9896L23.0688 15.8228C23.2129 15.9467 23.285 16.1171 23.285 16.334C23.285 16.5508 23.2129 16.7212 23.0688 16.8452L18.5718 21.6784C18.2547 22.0192 17.9304 22.0192 17.5989 21.6784C17.2674 21.3376 17.2746 20.9968 17.6206 20.656L21.5986 16.334L17.6206 12.012Z" fill="white"/>
</g>
<defs>
<filter id="filter0_d" x="0.927295" y="0.483398" width="37.6" height="37.6" filterUnits="userSpaceOnUse" color-interpolation-filters="sRGB">
<feFlood flood-opacity="0" result="BackgroundImageFix"/>
<feColorMatrix in="SourceAlpha" type="matrix" values="0 0 0 0 0 0 0 0 0 0 0 0 0 0 0 0 0 0 127 0"/>
<feOffset dy="2.8"/>
<feGaussianBlur stdDeviation="1.4"/>
<feColorMatrix type="matrix" values="0 0 0 0 0 0 0 0 0 0 0 0 0 0 0 0 0 0 0.25 0"/>
<feBlend mode="normal" in2="BackgroundImageFix" result="effect1_dropShadow"/>
<feBlend mode="normal" in="SourceGraphic" in2="effect1_dropShadow" result="shape"/>
</filter>
</defs>
</svg>
